#!OML:ASF G:\JayActor3\Patient Classification 1\Patient 1\Session 6\male.ASF
:FULLY-SPECIFIED
:DEGREES
1272
root -5.51511 16.1534 -2.05989 5.50266 -24.648 -362.486
lowerback 4.2609 0.34019 4.6982
upperback 3.91156 0.536028 1.63805
thorax 1.6708 0.340376 -0.961258
lowerneck 8.20624 -5.71788 1.91119
upperneck -9.31276 -7.51102 -0.358945
head -4.67159 -3.75683 0.0423372
rclavicle 1.00386e-014 -1.63003e-014
rhumerus -33.4152 19.837 -95.8851
rradius 61.0576
rwrist 13.3917
rhand -49.2384 5.51996
rfingers 7.12502
rthumb -21.858 -23.2655
lclavicle 1.00386e-014 -1.63003e-014
lhumerus -42.583 -23.9694 87.5713
lradius 75.6534
lwrist 13.1044
lhand -12.009 16.5099
lfingers 7.12502
lthumb 14.0483 46.0151
rfemur -3.4755 0.00851883 26.7395
rtibia 59.6575
rfoot 16.6953 -23.4835
rtoes 4.67069
lfemur -32.3693 11.191 -23.2653
ltibia 36.6775
lfoot -7.96071 -1.61539
ltoes -4.11489
1273
root -5.57681 16.1372 -1.91901 5.25001 -24.83 -361.878
lowerback 4.30287 0.289747 4.18593
upperback 3.95926 0.45853 1.43679
thorax 1.68721 0.294074 -0.880366
lowerneck 8.23618 -5.69653 1.82857
upperneck -9.43452 -7.47615 -0.195355
head -4.71015 -3.74537 0.112704
rclavicle 6.32135e-014 5.1684e-015
rhumerus -33.4135 19.7892 -95.9769
rradius 60.966
rwrist 13.4519
rhand -49.5021 5.7519
rfingers 7.12502
rthumb -22.1111 -23.0038
lclavicle 6.32135e-014 5.1684e-015
lhumerus -41.914 -23.8587 87.2522
lradius 75.9102
lwrist 12.9339
lhand -11.7331 16.6885
lfingers 7.12502
lthumb 14.3142 46.1751
rfemur -5.43481 0.136718 26.0788
rtibia 62.3536
rfoot 16.1858 -22.4637
rtoes 3.73351
lfemur -31.7809 11.3826 -23.8363
ltibia 36.7791
lfoot -8.87826 -1.47848
ltoes -4.57252
1274
root -5.63786 16.1209 -1.78209 4.94405 -24.964 -361.208
lowerback 4.39086 0.208101 3.61872
upperback 4.02101 0.339461 1.22761
thorax 1.6913 0.22545 -0.775555
lowerneck 8.25296 -5.66266 1.72058
upperneck -9.56163 -7.42728 -0.0261686
head -4.7466 -3.72657 0.18814
rclavicle -8.40859e-014 2.10712e-014
rhumerus -33.3725 19.76 -96.0657
rradius 60.8787
rwrist 13.5602
rhand -49.7766 5.97856
rfingers 7.12502
rthumb -22.3746 -22.7457
lclavicle -8.40859e-014 2.10712e-014
lhumerus -41.1863 -23.6824 86.9051
lradius 76.1368
lwrist 12.7447
lhand -11.4229 16.7504
lfingers 7.12502
lthumb 14.613 46.2156
rfemur -7.39659 0.193999 25.3724
rtibia 64.9515
rfoot 14.9813 -21.3314
rtoes 2.56475
lfemur -31.2075 11.5164 -24.4513
ltibia 36.9264
lfoot -9.71037 -1.31581
ltoes -5.12544
1275
root -5.69818 16.1041 -1.64968 4.59223 -25.0432 -360.48
lowerback 4.53715 0.0981342 3.00561
upperback 4.08755 0.182679 1.01149
thorax 1.66805 0.136328 -0.650699
lowerneck 8.24876 -5.62038 1.59328
upperneck -9.67881 -7.37006 0.140109
head -4.77454 -3.70297 0.264509
rclavicle -6.11263e-014 -3.97569e-016
rhumerus -33.3035 19.7308 -96.1455
rradius 60.8001
rwrist 13.7006
rhand -50.0109 6.22567
rfingers 7.12502
rthumb -22.5996 -22.4714
lclavicle -6.11263e-014 -3.97569e-016
lhumerus -40.4194 -23.4614 86.5388
lradius 76.3418
lwrist 12.546
lhand -11.1008 16.7333
lfingers 7.12502
lthumb 14.9233 46.1757
rfemur -9.3739 0.191085 24.6255
rtibia 67.4387
rfoot 13.3241 -20.3114
rtoes 1.42654
lfemur -30.646 11.5824 -25.0974
ltibia 37.1101
lfoot -10.4741 -1.17025
ltoes -5.54954
1276
root -5.75779 16.0869 -1.52161 4.22314 -25.079 -359.735
lowerback 4.74027 -0.030845 2.38333
upperback 4.14673 0.000321464 0.79564
thorax 1.60741 0.0335081 -0.518752
lowerneck 8.22949 -5.57255 1.45547
upperneck -9.77516 -7.30769 0.296198
head -4.79198 -3.67598 0.337994
rclavicle -1.45113e-014 1.98785e-015
rhumerus -33.2273 19.6884 -96.2189
rradius 60.7292
rwrist 13.8637
rhand -50.1989 6.50983
rfingers 7.12502
rthumb -22.78 -22.1652
lclavicle -1.45113e-014 1.98785e-015
lhumerus -39.6278 -23.2026 86.1631
lradius 76.5145
lwrist 12.342
lhand -10.7664 16.6317
lfingers 7.12502
lthumb 15.2455 46.0499
rfemur -11.3848 0.159505 23.8711
rtibia 69.792
rfoot 11.4012 -19.4849
rtoes 0.348173
lfemur -30.1053 11.6026 -25.7404
ltibia 37.3252
lfoot -11.201 -1.06624
ltoes -5.77591
1277
root -5.81731 16.069 -1.39741 3.85768 -25.0901 -359.023
lowerback 5.0013 -0.173304 1.79175
upperback 4.19253 -0.20042 0.588415
thorax 1.50348 -0.0783585 -0.393103
lowerneck 8.20352 -5.52016 1.32791
upperneck -9.8446 -7.23992 0.430526
head -4.79986 -3.64553 0.401226
rclavicle -4.21423e-014 3.97569e-016
rhumerus -33.1654 19.6378 -96.3025
rradius 60.6686
rwrist 14.0341
rhand -50.3494 6.81103
rfingers 7.12502
rthumb -22.9244 -21.8461
lclavicle -4.21423e-014 3.97569e-016
lhumerus -38.8388 -22.9057 85.7881
lradius 76.6602
lwrist 12.1456
lhand -10.4642 16.4987
lfingers 7.12502
lthumb 15.5366 45.8946
rfemur -13.4218 0.13059 23.1586
rtibia 71.9803
rfoot 9.40517 -18.7975
rtoes -0.726775
lfemur -29.5816 11.6278 -26.3342
ltibia 37.5706
lfoot -11.9172 -1.03969
ltoes -5.72392
1278
root -5.87734 16.0504 -1.2762 3.52495 -25.1041 -358.404
lowerback 5.30894 -0.309916 1.29303
upperback 4.22137 -0.392938 0.395464
thorax 1.35912 -0.184267 -0.303239
lowerneck 8.18347 -5.47272 1.22895
upperneck -9.88848 -7.17702 0.543545
head -4.80208 -3.61729 0.452343
rclavicle -6.97734e-014 3.97569e-016
rhumerus -33.1302 19.5443 -96.4004
rradius 60.6204
rwrist 14.2003
rhand -50.4853 7.11771
rfingers 7.12502
rthumb -23.0548 -21.5232
lclavicle -6.97734e-014 3.97569e-016
lhumerus -38.0588 -22.6104 85.4222
lradius 76.7755
lwrist 11.9497
lhand -10.1949 16.3656
lfingers 7.12502
lthumb 15.7959 45.7411
rfemur -15.4759 0.139274 22.5477
rtibia 73.9715
rfoot 7.44343 -18.1593
rtoes -1.84282
lfemur -29.082 11.6916 -26.8301
ltibia 37.8499
lfoot -12.647 -1.03355
ltoes -5.70937
1279
root -5.93815 16.0316 -1.15663 3.24305 -25.1471 -357.916
lowerback 5.64288 -0.432143 0.925205
upperback 4.23595 -0.564703 0.221826
thorax 1.18731 -0.276944 -0.265788
lowerneck 8.12472 -5.43065 1.16266
upperneck -10.2517 -7.117 0.650375
head -4.41591 -3.59497 0.450992
rclavicle -2.127e-014 3.18055e-015
rhumerus -33.1239 19.4193 -96.5139
rradius 60.5854
rwrist 14.3301
rhand -50.6146 7.42127
rfingers 7.12502
rthumb -23.1789 -21.2041
lclavicle -2.127e-014 3.18055e-015
lhumerus -37.2909 -22.3095 85.0837
lradius 76.8526
lwrist 11.7476
lhand -9.98698 16.2565
lfingers 7.12502
lthumb 15.9962 45.616
rfemur -17.5328 0.207978 22.0746
rtibia 75.7365
rfoot 5.55716 -17.5041
rtoes -3.056
lfemur -28.6027 11.8044 -27.1926
ltibia 38.163
lfoot -13.4015 -1.00912
ltoes -5.75514
1280
root -5.99974 16.0132 -1.0376 3.0276 -25.2398 -357.578
lowerback 5.97487 -0.534869 0.703892
upperback 4.24179 -0.707424 0.0705374
thorax 1.00802 -0.351973 -0.287256
lowerneck 8.14621 -5.3954 1.13824
upperneck -10.2817 -7.06309 0.73357
head -4.42462 -3.57243 0.477913
rclavicle -4.40308e-014 -1.23246e-014
rhumerus -33.1394 19.2748 -96.6416
rradius 60.5658
rwrist 14.4103
rhand -50.7728 7.70336
rfingers 7.12502
rthumb -23.3307 -20.9028
lclavicle -4.40308e-014 -1.23246e-014
lhumerus -36.535 -22.0166 84.7702
lradius 76.9076
lwrist 11.5451
lhand -9.85042 16.2359
lfingers 7.12502
lthumb 16.1277 45.5849
rfemur -19.5872 0.348557 21.7569
rtibia 77.2584
rfoot 3.72701 -16.8207
rtoes -4.37143
lfemur -28.1472 11.9787 -27.405
ltibia 38.5072
lfoot -14.1807 -0.962187
ltoes -5.81163
1281
root -6.0619 15.9959 -0.918168 2.87329 -25.3887 -357.361
lowerback 6.2784 -0.616208 0.606574
upperback 4.24853 -0.818174 -0.061331
thorax 0.844997 -0.408513 -0.359024
lowerneck 8.18638 -5.36502 1.12928
upperneck -10.3228 -7.01314 0.819713
head -4.44037 -3.55258 0.504352
rclavicle 3.97569e-015 7.95139e-015
rhumerus -33.1601 19.1299 -96.7678
rradius 60.5638
rwrist 14.4165
rhand -50.9747 7.9435
rfingers 7.12502
rthumb -23.5244 -20.638
lclavicle 3.97569e-015 7.95139e-015
lhumerus -35.7793 -21.7347 84.4839
lradius 76.9489
lwrist 11.328
lhand -9.75657 16.291
lfingers 7.12502
lthumb 16.2181 45.6327
rfemur -21.6312 0.554041 21.564
rtibia 78.5321
rfoot 1.9054 -16.1371
rtoes -5.72564
lfemur -27.7025 12.1407 -27.489
ltibia 38.8686
lfoot -14.977 -0.81885
ltoes -5.86854
1282
root -6.12455 15.9805 -0.797767 2.76315 -25.5959 -357.222
lowerback 6.5359 -0.684446 0.579703
upperback 4.26616 -0.909366 -0.177197
thorax 0.718227 -0.453966 -0.454765
lowerneck 8.23058 -5.33062 1.1222
upperneck -10.3762 -6.95648 0.914792
head -4.46035 -3.5301 0.533153
rclavicle 4.97956e-014 5.1684e-015
rhumerus -33.1727 19.0073 -96.8974
rradius 60.5702
rwrist 14.3867
rhand -51.2021 8.16538
rfingers 7.12502
rthumb -23.7424 -20.3879
lclavicle 4.97956e-014 5.1684e-015
lhumerus -35.0142 -21.4265 84.2174
lradius 76.9758
lwrist 11.1068
lhand -9.67682 16.3706
lfingers 7.12502
lthumb 16.2948 45.7059
rfemur -23.6565 0.8091 21.4487
rtibia 79.5606
rfoot 0.0577677 -15.4871
rtoes -7.07116
lfemur -27.2571 12.2801 -27.483
ltibia 39.2348
lfoot -15.7746 -0.640422
ltoes -5.65749
1283
root -6.1874 15.9663 -0.676745 2.68127 -25.8416 -357.106
lowerback 6.73708 -0.745051 0.575031
upperback 4.29911 -0.990102 -0.287201
thorax 0.638154 -0.493722 -0.557903
lowerneck 8.26251 -5.29433 1.11151
upperneck -10.4397 -6.89654 1.02236
head -4.48087 -3.50675 0.565927
rclavicle -1.98785e-016 -2.78299e-015
rhumerus -33.1629 18.9131 -97.0215
rradius 60.5868
rwrist 14.3129
rhand -51.4249 8.37595
rfingers 7.12502
rthumb -23.9561 -20.1495
lclavicle -1.98785e-016 -2.78299e-015
lhumerus -34.2346 -21.0994 83.9712
lradius 76.9985
lwrist 10.8949
lhand -9.61958 16.492
lfingers 7.12502
lthumb 16.35 45.8228
rfemur -25.6714 1.07924 21.3548
rtibia 80.3614
rfoot -1.82405 -14.9008
rtoes -8.33118
lfemur -26.8159 12.377 -27.454
ltibia 39.5887
lfoot -16.5507 -0.375172
ltoes -5.52273
1284
root -6.25056 15.9526 -0.555203 2.60786 -26.1216 -356.979
lowerback 6.88469 -0.79509 0.55738
upperback 4.35037 -1.05815 -0.397604
thorax 0.606812 -0.527247 -0.655583
lowerneck 8.27743 -5.25883 1.0919
upperneck -10.5121 -6.83717 1.14708
head -4.50047 -3.48454 0.605017
rclavicle -1.49089e-015 1.19271e-015
rhumerus -33.1297 18.829 -97.1373
rradius 60.6094
rwrist 14.231
rhand -51.6211 8.58897
rfingers 7.12502
rthumb -24.1442 -19.9116
lclavicle -1.49089e-015 1.19271e-015
lhumerus -33.432 -20.7526 83.749
lradius 77.0049
lwrist 10.6874
lhand -9.56448 16.6108
lfingers 7.12502
lthumb 16.403 45.9372
rfemur -27.6672 1.35009 21.2495
rtibia 80.9457
rfoot -3.72744 -14.414
rtoes -9.46439
lfemur -26.3761 12.5029 -27.4411
ltibia 39.9208
lfoot -17.2889 -0.116691
ltoes -5.42324
1285
root -6.31421 15.939 -0.433301 2.52072 -26.4317 -356.815
lowerback 6.99154 -0.83511 0.496307
upperback 4.42159 -1.11584 -0.511881
thorax 0.619334 -0.556258 -0.734226
lowerneck 8.27289 -5.22432 1.06646
upperneck -10.5903 -6.77892 1.28299
head -4.51812 -3.4635 0.648043
rclavicle 4.02539e-014 -8.15017e-015
rhumerus -33.0725 18.756 -97.2398
rradius 60.6362
rwrist 14.1585
rhand -51.7977 8.80517
rfingers 7.12502
rthumb -24.3135 -19.6728
lclavicle 4.02539e-014 -8.15017e-015
lhumerus -32.6128 -20.386 83.5526
lradius 76.997
lwrist 10.4944
lhand -9.50924 16.7027
lfingers 7.12502
lthumb 16.4562 46.0248
rfemur -29.6292 1.61284 21.1111
rtibia 81.3242
rfoot -5.6107 -14.0447
rtoes -10.4737
lfemur -25.9255 12.6998 -27.4718
ltibia 40.2201
lfoot -17.9838 0.108468
ltoes -5.42174
1286
root -6.37844 15.925 -0.311438 2.41716 -26.7596 -356.602
lowerback 7.07226 -0.867602 0.387469
upperback 4.50169 -1.16652 -0.637619
thorax 0.656185 -0.58253 -0.798778
lowerneck 8.25678 -5.19207 1.05113
upperneck -10.671 -6.72248 1.41952
head -4.53501 -3.4439 0.689512
rclavicle -4.27884e-014 -1.98785e-015
rhumerus -33.003 18.7008 -97.3346
rradius 60.6654
rwrist 14.1004
rhand -51.9377 9.0208
rfingers 7.12502
rthumb -24.4478 -19.4391
lclavicle -4.27884e-014 -1.98785e-015
lhumerus -31.7906 -20.0154 83.3789
lradius 76.9766
lwrist 10.32
lhand -9.45534 16.7635
lfingers 7.12502
lthumb 16.5081 46.0812
rfemur -31.5591 1.85243 20.9313
rtibia 81.5028
rfoot -7.42517 -13.801
rtoes -11.4077
lfemur -25.4657 12.9437 -27.5561
ltibia 40.4806
lfoot -18.639 0.319321
ltoes -5.52208
